#!OML:ASF I:\Actors\actors\Patient Classification 2\Patient 1\Session 1\actor1.ASF
:FULLY-SPECIFIED
:DEGREES
120
root -1.02344 18.2387 5.52258 2.2951 -3.26564 -4.58108
lowerback 8.4939 -3.99852 5.35104
upperback 0.294288 -4.6202 3.93805
thorax -4.54968 -2.35747 1.6837
lowerneck -21.9187 4.34042 3.9874
upperneck 17.6372 6.05495 -6.02629
head 9.49316 2.39564 -1.86791
rclavicle 4.69132e-014 -7.95139e-015
rhumerus -40.1677 15.0262 -88.7598
rradius 62.1136
rwrist 3.27292
rhand -2.50484 -34.3796
rfingers 7.12502
rthumb 23.1891 -63.0037
lclavicle 4.69132e-014 -7.95139e-015
lhumerus 32.4144 -4.77069 78.5025
lradius 52.3195
lwrist 27.8623
lhand -25.7906 -25.9225
lfingers 7.12502
lthumb 0.747987 4.05595
rfemur 0 0 0
rtibia 0
rfoot 0 0
rtoes 0
lfemur 14.0598 -2.90282 -11.4282
ltibia -17.0715
lfoot -3.02076 17.1347
ltoes -9.05396
121
root -1.02566 18.2426 5.52878 2.44629 -3.42416 -4.58154
lowerback 8.55142 -3.8855 5.37024
upperback 0.27245 -4.46315 3.9052
thorax -4.60667 -2.28117 1.62402
lowerneck -21.849 4.26227 3.9067
upperneck 17.8132 6.00579 -6.112
head 9.54085 2.35563 -1.89351
rclavicle -2.3059e-014 7.95139e-016
rhumerus -39.362 16.1972 -88.4756
rradius 65.2378
rwrist 2.10184
rhand -3.77921 -34.1074
rfingers 7.12502
rthumb 21.966 -62.8802
lclavicle -2.3059e-014 7.95139e-016
lhumerus 31.5635 -5.54775 78.2427
lradius 53.569
lwrist 28.2704
lhand -25.8934 -26.4151
lfingers 7.12502
lthumb 0.648713 3.56366
rfemur 0 0 0
rtibia 0
rfoot 0 0
rtoes 0
lfemur 13.9619 -2.78855 -11.4228
ltibia -17.0859
lfoot -2.94034 17.139
ltoes -9.09958
122
root -1.04406 18.2379 5.54652 2.29361 -3.0207 -4.58228
lowerback 8.64087 -3.93097 5.18794
upperback 0.308357 -4.53626 3.90301
thorax -4.60598 -2.31312 1.73638
lowerneck -21.6798 4.14059 3.65796
upperneck 18.0316 5.91074 -6.00407
head 9.5709 2.30625 -1.83235
rclavicle 3.49861e-014 8.74653e-015
rhumerus -38.3273 17.4959 -88.0367
rradius 68.5664
rwrist 1.36133
rhand -4.32604 -34.2632
rfingers 7.12502
rthumb 21.4408 -63.0967
lclavicle 3.49861e-014 8.74653e-015
lhumerus 30.3832 -6.54331 77.9321
lradius 55.2596
lwrist 28.8114
lhand -26.0733 -26.9602
lfingers 7.12502
lthumb 0.474904 3.01903
rfemur 0 0 0
rtibia 0
rfoot 0 0
rtoes 0
lfemur 14.1014 -2.53683 -11.2756
ltibia -17.1157
lfoot -2.58729 16.4605
ltoes -9.86123
123
root -1.0524 18.2379 5.56065 2.25183 -2.89635 -4.58776
lowerback 8.69401 -3.87795 5.08268
upperback 0.296013 -4.47352 3.84961
thorax -4.64396 -2.28078 1.73503
lowerneck -21.5569 4.02445 3.36734
upperneck 18.3801 5.82033 -5.80235
head 9.6509 2.2635 -1.73058
rclavicle 2.84262e-014 -1.19271e-014
rhumerus -36.9116 18.8419 -87.4211
rradius 71.9762
rwrist 0.901073
rhand -3.8559 -34.9053
rfingers 7.12502
rthumb 21.8923 -63.6868
lclavicle 2.84262e-014 -1.19271e-014
lhumerus 28.9024 -7.78132 77.4123
lradius 57.4746
lwrist 29.6848
lhand -26.3875 -27.3604
lfingers 7.12502
lthumb 0.171489 2.61929
rfemur 0 0 0
rtibia 0
rfoot 0 0
rtoes 0
lfemur 14.1969 -2.63538 -11.2368
ltibia -17.1599
lfoot -2.53985 16.4458
ltoes -10.0898
124
root -1.05603 18.2376 5.57512 2.24211 -2.93185 -4.61172
lowerback 8.66164 -3.77139 4.9777
upperback 0.295484 -4.3473 3.80204
thorax -4.62059 -2.2167 1.72398
lowerneck -21.4514 3.90758 3.05606
upperneck 18.8196 5.74854 -5.63979
head 9.76876 2.22081 -1.63619
rclavicle -1.07046e-013 2.22639e-014
rhumerus -34.9103 20.2968 -86.5344
rradius 75.1237
rwrist 0.177915
rhand -3.45153 -35.2174
rfingers 7.12502
rthumb 22.2806 -63.953
lclavicle -1.07046e-013 2.22639e-014
lhumerus 27.1837 -9.10822 76.8495
lradius 60.0896
lwrist 30.6665
lhand -26.684 -27.5724
lfingers 7.12502
lthumb -0.114911 2.4073
rfemur 0 0 0
rtibia 0
rfoot 0 0
rtoes 0
lfemur 14.3229 -2.87508 -11.2317
ltibia -17.2296
lfoot -2.68543 16.7199
ltoes -9.71454
125
root -1.0625 18.2353 5.59032 2.2113 -2.99557 -4.68736
lowerback 8.4754 -3.63337 4.9022
upperback 0.375112 -4.1943 3.72509
thorax -4.43125 -2.13857 1.64747
lowerneck -21.3257 3.78133 2.85251
upperneck 19.2269 5.65074 -5.57872
head 9.87796 2.16249 -1.59895
rclavicle 6.22196e-014 1.59028e-015
rhumerus -32.342 21.7109 -85.4503
rradius 77.9647
rwrist -0.894663
rhand -4.06656 -35.2235
rfingers 7.12502
rthumb 21.69 -64.0285
lclavicle 6.22196e-014 1.59028e-015
lhumerus 25.3313 -10.6552 76.1203
lradius 63.0233
lwrist 31.6941
lhand -26.8665 -28.0377
lfingers 7.12502
lthumb -0.291147 1.94182
rfemur 0 0 0
rtibia 0
rfoot 0 0
rtoes 0
lfemur 14.4679 -2.94132 -11.1474
ltibia -17.2988
lfoot -2.73942 16.8522
ltoes -9.66497
126
root -1.06935 18.2336 5.60645 2.19343 -3.01367 -4.79416
lowerback 8.50679 -3.52304 4.98061
upperback 0.272126 -4.03875 3.55777
thorax -4.57256 -2.0666 1.4176
lowerneck -21.2088 3.6859 2.83218
upperneck 19.8588 5.57678 -5.62896
head 10.08 2.11112 -1.62832
rclavicle -2.62396e-014 0
rhumerus -29.7784 23.059 -84.4391
rradius 80.5754
rwrist -2.29205
rhand -5.84548 -34.7957
rfingers 7.12502
rthumb 19.9809 -63.7885
lclavicle -2.62396e-014 0
lhumerus 23.0387 -12.6332 75.0776
lradius 66.2879
lwrist 32.6475
lhand -26.9694 -28.5899
lfingers 7.12502
lthumb -0.390527 1.38945
rfemur 0 0 0
rtibia 0
rfoot 0 0
rtoes 0
lfemur 14.5737 -2.9108 -11.0201
ltibia -17.368
lfoot -2.63711 16.8773
ltoes -10.1693
127
root -1.0753 18.2331 5.62639 2.20988 -2.9605 -4.87906
lowerback 8.254 -3.413 4.97139
upperback 0.26754 -3.91917 3.41809
thorax -4.44275 -2.00782 1.24496
lowerneck -21.1816 3.59812 2.88818
upperneck 20.4729 5.53738 -5.88013
head 10.3048 2.05565 -1.73637
rclavicle 2.54941e-014 -2.06736e-014
rhumerus -26.6677 24.2135 -82.9755
rradius 82.9274
rwrist -1.58432
rhand -5.39876 -34.8544
rfingers 7.12502
rthumb 20.4102 -63.8017
lclavicle 2.54941e-014 -2.06736e-014
lhumerus 20.7898 -14.7954 73.9217
lradius 69.7452
lwrist 33.1129
lhand -26.9119 -28.6869
lfingers 7.12502
lthumb -0.335026 1.29261
rfemur 0 0 0
rtibia 0
rfoot 0 0
rtoes 0
lfemur 14.6422 -2.95883 -10.9253
ltibia -17.4338
lfoot -2.51913 16.9418
ltoes -10.777
128
root -1.08362 18.2329 5.64894 2.24171 -2.93854 -4.92416
lowerback 7.97164 -3.24928 4.89916
upperback 0.241212 -3.73511 3.27041
thorax -4.3135 -1.91611 1.09118
lowerneck -21.1315 3.42893 2.86114
upperneck 21.0363 5.4035 -6.10411
head 10.5004 1.95463 -1.83734
rclavicle 2.78299e-014 2.54444e-014
rhumerus -23.4993 25.1722 -81.3355
rradius 84.7939
rwrist 0.226394
rhand -5.75467 -32.6404
rfingers 7.12502
rthumb 20.0682 -61.624
lclavicle 2.78299e-014 2.54444e-014
lhumerus 18.4599 -17.1359 72.8685
lradius 73.2829
lwrist 33.1399
lhand -26.7086 -28.6097
lfingers 7.12502
lthumb -0.138641 1.37002
rfemur 0 0 0
rtibia 0
rfoot 0 0
rtoes 0
lfemur 14.7198 -3.03561 -10.872
ltibia -17.4872
lfoot -2.52243 17.0586
ltoes -11.0596
129
root -1.09349 18.2314 5.67246 2.23635 -3.01364 -4.95925
lowerback 7.76141 -3.02536 4.83092
upperback 0.231671 -3.46572 3.10807
thorax -4.20574 -1.78222 0.915308
lowerneck -21.1752 3.19004 2.51656
upperneck 21.5561 5.19238 -6.017
head 10.6757 1.82917 -1.78584
rclavicle -2.54941e-014 1.43125e-014
rhumerus -20.3257 25.5367 -79.5218
rradius 87.3189
rwrist -1.36149
rhand -4.38091 -33.4291
rfingers 7.12502
rthumb 21.3881 -62.2687
lclavicle -2.54941e-014 1.43125e-014
lhumerus 16.0975 -19.5047 72.1105
lradius 76.8189
lwrist 33.123
lhand -26.5516 -28.9527
lfingers 7.12502
lthumb 0.0129943 1.02708
rfemur 0 0 0
rtibia 0
rfoot 0 0
rtoes 0
lfemur 14.8771 -3.13345 -10.8416
ltibia -17.5379
lfoot -2.64759 17.248
ltoes -10.8855
130
root -1.10304 18.2288 5.69608 2.21009 -3.17831 -4.99825
lowerback 7.63164 -2.78465 4.68677
upperback 0.207339 -3.17305 2.95582
thorax -4.15209 -1.63585 0.796205
lowerneck -21.1973 2.99234 2.17771
upperneck 22.053 5.01431 -5.84872
head 10.8398 1.72988 -1.70089
rclavicle -4.24902e-014 -2.14687e-014
rhumerus -16.3332 27.4728 -77.081
rradius 88.2882
rwrist -2.22786
rhand -6.25373 -33.3712
rfingers 7.12502
rthumb 19.5884 -62.4044
lclavicle -4.24902e-014 -2.14687e-014
lhumerus 13.612 -21.6752 71.7808
lradius 80.2884
lwrist 33.0892
lhand -26.4145 -29.5058
lfingers 7.12502
lthumb 0.145389 0.473896
rfemur 0 0 0
rtibia 0
rfoot 0 0
rtoes 0
lfemur 15.093 -3.31039 -10.8317
ltibia -17.6014
lfoot -2.81961 17.6017
ltoes -10.6486
131
root -1.11307 18.2273 5.72001 2.21057 -3.3392 -5.0804
lowerback 7.54845 -2.57621 4.62243
upperback 0.105606 -2.91124 2.74029
thorax -4.21313 -1.50873 0.577296
lowerneck -20.9541 2.8684 2.27135
upperneck 22.4057 4.86995 -5.98596
head 10.924 1.65262 -1.79433
rclavicle -1.50828e-014 2.5842e-014
rhumerus -12.6263 28.6313 -74.6801
rradius 89.5729
rwrist -3.11154
rhand -6.82167 -33.9634
rfingers 7.12502
rthumb 19.0423 -63.0512
lclavicle -1.50828e-014 2.5842e-014
lhumerus 11.0437 -23.6486 71.747
lradius 83.4557
lwrist 32.7809
lhand -26.1153 -29.8087
lfingers 7.12502
lthumb 0.434423 0.170588
rfemur 0 0 0
rtibia 0
rfoot 0 0
rtoes 0
lfemur 15.2818 -3.44859 -10.7665
ltibia -17.6795
lfoot -2.90695 17.9268
ltoes -10.7756
132
root -1.12242 18.2254 5.74459 2.18189 -3.44048 -5.20206
lowerback 7.40433 -2.35295 4.53949
upperback 0.0498788 -2.63592 2.56762
thorax -4.18703 -1.37285 0.40763
lowerneck -20.6611 2.71074 2.3079
upperneck 22.6645 4.69981 -6.1523
head 10.9619 1.55811 -1.89256
rclavicle -2.90226e-014 4.75095e-014
rhumerus -9.09809 29.4654 -72.182
rradius 90.9087
rwrist -4.21149
rhand -7.80121 -33.8313
rfingers 7.12502
rthumb 18.1001 -63.0091
lclavicle -2.90226e-014 4.75095e-014
lhumerus 8.71348 -25.4016 72.0915
lradius 86.0314
lwrist 31.9209
lhand -25.7597 -30.0057
lfingers 7.12502
lthumb 0.777819 -0.0273515
rfemur 0 0 0
rtibia 0
rfoot 0 0
rtoes 0
lfemur 15.4878 -3.61156 -10.6549
ltibia -17.7682
lfoot -2.96875 18.2132
ltoes -10.8168
